<svg aria-hidden="true" style="position:absolute;width:0;height:0;overflow:hidden" xmlns="http://www.w3.org/2000/svg"><defs><symbol id="icon-ellipse-mob" viewBox="0 0 26 32"><path fill="#ffa5ba" style="fill:var(--color1, #ffa5ba)" d="M32.186 16c0 8.837-7.205 16-16.093 16S0 24.837 0 16 7.205 0 16.093 0s16.093 7.163 16.093 16z"/></symbol><symbol id="icon-ellipse-tab-desc" viewBox="0 0 32 32"><path fill="#ffa5ba" style="fill:var(--color1, #ffa5ba)" d="M32.199 16c0 8.837-7.208 16-16.099 16S.001 24.837.001 16 7.209 0 16.1 0s16.099 7.163 16.099 16z"/></symbol><symbol id="icon-ellipse-desc" viewBox="0 0 32 32"><path fill="#ffa5ba" style="fill:var(--color1, #ffa5ba)" d="M32 16c0 8.837-7.163 16-16 16S0 24.837 0 16 7.163 0 16 0s16 7.163 16 16z"/></symbol></defs></svg>