<svg aria-hidden="true" style="position:absolute;width:0;height:0;overflow:hidden" xmlns="http://www.w3.org/2000/svg"><defs><symbol id="icon-group-16" viewBox="0 0 30 32"><path fill="#fff" style="fill:var(--color1, #fff)" d="M29.922 6.234a6.234 6.234 0 1 1-12.468 0 6.234 6.234 0 0 1 12.468 0z"/><path fill="#d41443" style="fill:var(--color2, #d41443)" d="M8.252 19.905c0 .14-.389.255-1.166.344-.777.076-1.555.115-2.332.115s-1.281-.032-1.51-.096c-.217-.076-.325-.197-.325-.363v-8.258H.969c-.217 0-.325-.465-.325-1.396s.108-1.772.325-2.523c.064-.242.739-.465 2.026-.669s2.275-.306 2.963-.306 1.147.025 1.376.076.401.115.516.191c.115.064.204.14.268.229.089.14.134.274.134.401v12.254zm7.439-7.895c.115-.102.421-.236.918-.401s1.058-.249 1.682-.249c.637 0 1.172.096 1.606.287.446.179.79.408 1.032.688.255.281.453.631.593 1.051.229.688.344 1.389.344 2.103s-.032 1.255-.096 1.625c-.051.357-.191.758-.421 1.204a3.261 3.261 0 0 1-.892 1.123l-.006.005c-.37.306-.905.567-1.606.784-.688.204-1.497.306-2.428.306-2.001 0-3.511-.548-4.531-1.644-1.019-1.109-1.529-2.893-1.529-5.353 0-2.473.478-4.25 1.434-5.334.956-1.096 2.409-1.644 4.359-1.644 1.338 0 2.498.102 3.479.306.994.191 1.491.421 1.491.688 0 .331-.128.911-.382 1.74-.242.828-.465 1.243-.669 1.243a4.72 4.72 0 0 1-.573-.096c-.866-.179-1.657-.268-2.37-.268s-1.172.179-1.376.535c-.204.344-.306.854-.306 1.529.051-.064.134-.14.249-.229zm.421 1.72c-.37 0-.554.688-.554 2.065 0 1.364.185 2.045.554 2.045.395 0 .593-.682.593-2.046 0-1.376-.197-2.065-.593-2.065z"/><path fill="#fff" style="fill:var(--color1, #fff)" d="M9.658 30.407c-.276 0-.524-.062-.745-.186a1.429 1.429 0 0 1-.514-.522l-.004-.007c-.124-.229-.186-.495-.186-.797s.062-.566.186-.791c.128-.229.3-.405.518-.529a1.44 1.44 0 0 1 .724-.192h.022-.001c.341 0 .628.089.861.268.237.179.386.417.448.716h-.5a.635.635 0 0 0-.283-.412l-.003-.002a.93.93 0 0 0-.529-.151.904.904 0 0 0-.809.489c-.089.163-.134.364-.134.605s.044.442.134.605a.952.952 0 0 0 .349.372.92.92 0 0 0 .46.122.964.964 0 0 0 .529-.145.655.655 0 0 0 .285-.425h.5a1.162 1.162 0 0 1-.439.708l-.003.002a1.381 1.381 0 0 1-.867.273zm2.952 0c-.24 0-.44-.041-.599-.122a.83.83 0 0 1-.471-.762v-.006c0-.295.113-.522.337-.681s.532-.239.919-.239h.78v-.035c0-.252-.066-.442-.198-.57-.132-.132-.308-.198-.529-.198a.854.854 0 0 0-.495.145.62.62 0 0 0-.256.413h-.5a.94.94 0 0 1 .209-.529c.123-.141.277-.252.452-.323l.008-.003c.183-.078.377-.116.582-.116.404 0 .707.108.908.326.206.213.308.499.308.855v1.775h-.436l-.029-.518c-.087.17-.209.31-.357.417l-.003.002c-.155.112-.364.169-.628.169zm.075-.413a.79.79 0 0 0 .477-.145c.136-.097.239-.223.308-.378s.105-.318.105-.489v-.006h-.739c-.287 0-.49.05-.611.151a.456.456 0 0 0-.175.359v.008a.46.46 0 0 0 .163.367c.113.089.27.134.471.134zm2.269.344v-2.473h-.436v-.413h.436v-.5c0-.279.07-.483.21-.611s.343-.192.611-.192h.291v.419h-.215c-.148 0-.252.031-.314.093-.062.058-.093.159-.093.303v.489h.71v.413h-.71v2.473h-.489zm2.965.069c-.275 0-.519-.062-.733-.186a1.406 1.406 0 0 1-.503-.522l-.004-.007c-.12-.225-.18-.49-.18-.797 0-.303.06-.566.18-.791.121-.229.287-.405.5-.529.217-.128.468-.192.751-.192.279 0 .52.064.721.192.206.124.363.289.471.495a1.38 1.38 0 0 1 .157.797v-.006.145h-2.298c.012.221.062.405.151.553a.96.96 0 0 0 .343.326c.14.074.287.111.442.111.202 0 .371-.047.506-.14s.235-.219.297-.378h.483a1.315 1.315 0 0 1-.445.667l-.003.002c-.217.175-.496.262-.838.262zm0-2.612a.984.984 0 0 0-.623.215c-.178.14-.281.345-.308.617h1.815c-.012-.26-.101-.463-.268-.611s-.372-.221-.617-.221zm3.12 2.612c-.345 0-.632-.087-.861-.262s-.363-.411-.401-.71h.5a.713.713 0 0 0 .239.396c.132.108.308.163.529.163.206 0 .357-.043.454-.128a.413.413 0 0 0 .145-.314c0-.175-.064-.291-.192-.349a2.418 2.418 0 0 0-.529-.157 2.994 2.994 0 0 1-.486-.141l.021.007a1.088 1.088 0 0 1-.39-.245.584.584 0 0 1-.157-.425c0-.252.093-.458.279-.617.19-.163.446-.244.768-.244.306 0 .557.078.751.233.198.151.312.369.343.652h-.483a.487.487 0 0 0-.192-.343.655.655 0 0 0-.425-.128c-.175 0-.31.037-.407.111a.354.354 0 0 0-.14.281v.01c0 .116.06.208.18.273.124.066.291.122.5.169.179.039.347.087.506.145a.904.904 0 0 1 .396.25c.105.108.157.268.157.477a.793.793 0 0 1-.297.646c-.198.167-.468.25-.809.25z"/></symbol><symbol id="icon-group-23" viewBox="0 0 39 32"><path fill="#fff" style="fill:var(--color1, #fff)" d="M38.737 6.316a6.316 6.316 0 1 1-12.633 0 6.316 6.316 0 0 1 12.633 0z"/><path fill="#d41443" style="fill:var(--color2, #d41443)" d="M8.601 11.475c-.362 0-.678-.426-.949-1.278a8.478 8.478 0 0 1-.387-2.46c0-.181.2-.381.6-.6.4-.232 1.007-.439 1.821-.62s1.698-.271 2.653-.271c3.706 0 5.559 1.298 5.559 3.893 0 .723-.155 1.401-.465 2.034s-.652 1.143-1.027 1.53a7.811 7.811 0 0 1-1.317 1.046c-.581.362-1.136.645-1.666.852h3.874c.077 0 .161.039.252.116.091.064.187.271.291.62.103.336.155.762.155 1.278 0 .504-.032.93-.097 1.278-.064.336-.142.581-.232.736-.194.349-.368.536-.523.562l-.097.019H8.563c-.813 0-1.22-1.272-1.22-3.816 0-.284.839-1.065 2.518-2.344a13.273 13.273 0 0 0 1.738-1.525l.005-.005c.529-.555.794-1.007.794-1.356 0-.387-.291-.581-.872-.581s-1.195.149-1.84.445c-.633.297-.994.445-1.085.445zm21.794-1.607c0 1.304-.517 2.279-1.549 2.925.142.064.323.219.542.465.211.219.402.46.57.717l.011.019c.4.633.6 1.381.6 2.247 0 1.42-.51 2.466-1.53 3.138s-2.421 1.007-4.203 1.007a14.08 14.08 0 0 1-2.499-.213c-.775-.155-1.368-.323-1.782-.504-.413-.194-.62-.368-.62-.523 0-.71.077-1.336.232-1.879s.329-.923.523-1.143c.194-.232.381-.349.562-.349.051 0 .394.116 1.027.349s1.252.349 1.859.349c.62 0 .93-.194.93-.581 0-.529-.652-.813-1.956-.852-.517-.013-.801-.026-.852-.039-.271-.091-.407-.659-.407-1.704s.136-1.621.407-1.724c.051-.026.336-.039.852-.039 1.304-.026 1.956-.291 1.956-.794 0-.387-.284-.581-.852-.581-.555 0-1.175.136-1.859.407s-1.059.407-1.123.407c-.297 0-.568-.432-.813-1.298s-.368-1.478-.368-1.84c0-.336.375-.678 1.123-1.027.826-.375 2.04-.562 3.641-.562 3.719 0 5.578 1.207 5.578 3.622z"/><path fill="#fff" style="fill:var(--color1, #fff)" d="M.736 30.316v-2.505H.294v-.419h.442v-.507c0-.283.071-.489.212-.619s.348-.195.619-.195h.295v.424h-.218c-.149 0-.255.032-.318.094-.063.059-.094.161-.094.307v.495h.719v.419h-.719v2.505H.737zm3.021.071c-.275 0-.523-.063-.743-.189a1.4 1.4 0 0 1-.521-.524l-.004-.007c-.126-.232-.189-.503-.189-.813s.065-.58.195-.808c.13-.232.304-.411.525-.536.21-.119.462-.189.729-.189h.021-.001c.275 0 .523.063.743.189s.393.304.519.536c.13.228.195.497.195.808s-.065.581-.195.813a1.389 1.389 0 0 1-.524.527l-.007.004a1.45 1.45 0 0 1-.721.189h-.023.001zm0-.425a.926.926 0 0 0 .826-.495c.091-.165.136-.369.136-.613s-.045-.448-.136-.613a.889.889 0 0 0-.344-.369l-.004-.002a.917.917 0 0 0-.463-.124h-.003a.926.926 0 0 0-.826.495c-.091.165-.136.369-.136.613s.045.448.136.613a.934.934 0 0 0 .348.371.924.924 0 0 0 .466.124zm3.488.425c-.275 0-.523-.063-.743-.189a1.4 1.4 0 0 1-.521-.524l-.004-.007c-.126-.232-.189-.503-.189-.813s.065-.58.195-.808c.13-.232.304-.411.525-.536.21-.119.462-.189.729-.189h.021-.001c.275 0 .523.063.743.189s.393.304.519.536c.13.228.195.497.195.808s-.065.581-.195.813a1.389 1.389 0 0 1-.524.527l-.007.004a1.45 1.45 0 0 1-.721.189h-.023.001zm0-.425a.926.926 0 0 0 .826-.495c.091-.165.136-.369.136-.613s-.045-.448-.136-.613a.889.889 0 0 0-.344-.369l-.004-.002a.917.917 0 0 0-.463-.124h-.003a.926.926 0 0 0-.826.495c-.09.165-.136.369-.136.613s.045.448.136.613a.934.934 0 0 0 .348.371.927.927 0 0 0 .466.124zm3.483.425a1.45 1.45 0 0 1-.766-.2 1.397 1.397 0 0 1-.503-.541l-.004-.008c-.118-.232-.177-.495-.177-.79s.061-.556.183-.784c.122-.232.291-.413.507-.542.216-.133.472-.2.766-.2.24 0 .452.049.637.147s.328.236.43.413v-1.81h.495v4.244h-.448l-.047-.483c-.094.141-.23.269-.407.383s-.399.171-.666.171zm.053-.431c.197 0 .37-.045.519-.136a.945.945 0 0 0 .354-.389c.087-.165.13-.358.13-.578s-.043-.413-.13-.578a.915.915 0 0 0-.35-.381l-.004-.002a.94.94 0 0 0-.499-.142h-.02.001a.952.952 0 0 0-.87.519l-.002.005c-.083.165-.124.358-.124.578s.041.413.124.578c.087.165.205.295.354.389a.995.995 0 0 0 .519.136zm5.038.36c-.267 0-.477-.065-.631-.195s-.23-.363-.23-.701v-1.609h-.507v-.419h.507l.065-.701h.43v.701h.861v.419h-.861v1.609c0 .185.037.31.112.377.075.063.206.094.395.094h.307v.424h-.448zm1.124 0v-2.924h.448l.041.56c.091-.192.228-.346.413-.46s.413-.171.684-.171v.519h-.136c-.173 0-.332.032-.477.094-.145.059-.261.161-.348.307s-.13.346-.13.601v1.474h-.495zm3.209.071c-.346 0-.621-.104-.825-.312-.204-.212-.307-.536-.307-.973v-1.709h.495v1.656c0 .609.25.914.749.914a.819.819 0 0 0 .631-.271c.169-.185.253-.446.253-.784v-1.515h.495v2.924h-.448l-.035-.525c-.091.185-.23.334-.402.434l-.005.003a1.146 1.146 0 0 1-.601.159zm3.65 0c-.279 0-.531-.063-.755-.189a1.451 1.451 0 0 1-.521-.529l-.004-.007c-.126-.232-.189-.501-.189-.808s.063-.574.189-.802c.13-.232.304-.411.525-.536.211-.122.463-.195.733-.195h.023-.001c.346 0 .637.091.872.271.24.181.391.422.454.725h-.507a.639.639 0 0 0-.286-.417l-.003-.002a.944.944 0 0 0-.536-.153.926.926 0 0 0-.82.495c-.091.165-.136.369-.136.613s.045.448.136.613a.964.964 0 0 0 .354.377.924.924 0 0 0 .466.124.973.973 0 0 0 .536-.147.661.661 0 0 0 .289-.43h.507a1.172 1.172 0 0 1-.445.717l-.003.002c-.24.185-.533.277-.878.277zm2.017-.071v-4.244h.496v2.552l1.197-1.232h.607l-1.297 1.32 1.463 1.603h-.631L26.316 28.8v1.515h-.495zm3.918.071c-.349 0-.64-.088-.872-.265s-.368-.417-.407-.719h.507a.722.722 0 0 0 .242.401c.133.11.312.165.536.165.208 0 .362-.043.46-.13a.422.422 0 0 0 .147-.318c0-.177-.065-.295-.195-.354a2.466 2.466 0 0 0-.536-.159 2.969 2.969 0 0 1-.492-.143l.021.007a1.093 1.093 0 0 1-.395-.248.593.593 0 0 1-.159-.43c0-.256.094-.464.283-.625.192-.165.452-.248.778-.248.31 0 .564.079.76.236.2.153.316.373.348.66h-.489a.496.496 0 0 0-.195-.348.664.664 0 0 0-.43-.13c-.177 0-.315.037-.413.112a.359.359 0 0 0-.142.285v.01c0 .118.061.211.183.277.126.067.295.124.507.171.181.039.352.088.513.147a.912.912 0 0 1 .401.253c.106.11.159.271.159.483a.802.802 0 0 1-.301.654c-.2.169-.474.253-.819.253z"/></symbol></defs></svg>